<?xml version="1.0" encoding="UTF-8"?>
<svg version="1.1" xmlns="http://www.w3.org/2000/svg" width="64" height="64">
<path d="M0 0 C0.99 0.33 1.98 0.66 3 1 C3 1.66 3 2.32 3 3 C5.475 3.495 5.475 3.495 8 4 C8.33 3.01 8.66 2.02 9 1 C9.99 1.33 10.98 1.66 12 2 C12 2.99 12 3.98 12 5 C12.5775 4.835 13.155 4.67 13.75 4.5 C16 4 16 4 20 4 C19.67 4.99 19.34 5.98 19 7 C18.01 7 17.02 7 16 7 C16 7.66 16 8.32 16 9 C16.99 9.33 17.98 9.66 19 10 C19.495 10.99 19.495 10.99 20 12 C21.32 11.34 22.64 10.68 24 10 C24 13.11257569 23.82638376 15.10765685 23 18 C24.32 17.67 25.64 17.34 27 17 C27 18.32 27 19.64 27 21 C26.01 21.495 26.01 21.495 25 22 C25.66868314 25.11332248 25.66868314 25.11332248 28.0625 26.1875 C28.701875 26.455625 29.34125 26.72375 30 27 C29.505 28.485 29.505 28.485 29 30 C28.01 29.67 27.02 29.34 26 29 C25.34 30.32 24.68 31.64 24 33 C25.32 33.33 26.64 33.66 28 34 C27.67 35.32 27.34 36.64 27 38 C25.35 37.67 23.7 37.34 22 37 C21.7525 37.556875 21.505 38.11375 21.25 38.6875 C19.78393985 41.39971127 17.97010529 43.63587365 16 46 C16.66 47.32 17.32 48.64 18 50 C16.68 50.66 15.36 51.32 14 52 C13.34 50.68 12.68 49.36 12 48 C8.37 48.99 4.74 49.98 1 51 C1 52.32 1 53.64 1 55 C-0.485 54.505 -0.485 54.505 -2 54 C-2.14308594 53.35546875 -2.28617188 52.7109375 -2.43359375 52.046875 C-2.78642566 49.8333752 -2.78642566 49.8333752 -4.84765625 48.953125 C-5.94400391 48.60507813 -5.94400391 48.60507813 -7.0625 48.25 C-7.79597656 48.00765625 -8.52945312 47.7653125 -9.28515625 47.515625 C-9.85105469 47.34546875 -10.41695312 47.1753125 -11 47 C-11.33 47.99 -11.66 48.98 -12 50 C-12.99 49.67 -13.98 49.34 -15 49 C-14.34 47.68 -13.68 46.36 -13 45 C-16.17320782 41.46413986 -18.16743695 39.41421969 -23 39 C-22.649375 38.484375 -22.29875 37.96875 -21.9375 37.4375 C-20.6384359 34.05993333 -21.32782319 31.49531943 -22 28 C-22.99 27.67 -23.98 27.34 -25 27 C-24.505 25.515 -24.505 25.515 -24 24 C-23.34 24 -22.68 24 -22 24 C-22.226875 23.236875 -22.45375 22.47375 -22.6875 21.6875 C-22.790625 20.800625 -22.89375 19.91375 -23 19 C-21.5625 17.1875 -21.5625 17.1875 -20 16 C-21.32 15.01 -22.64 14.02 -24 13 C-23.67 12.01 -23.34 11.02 -23 10 C-20 11 -20 11 -18 13 C-16.3372974 10.32521756 -15.00016187 8.0004856 -14 5 C-12.35 5 -10.7 5 -9 5 C-8.67 3.68 -8.34 2.36 -8 1 C-7.01 1.33 -6.02 1.66 -5 2 C-5 2.66 -5 3.32 -5 4 C-3.01508358 3.73323796 -3.01508358 3.73323796 -1 3 C-0.67 2.01 -0.34 1.02 0 0 Z " fill="#72D572" transform="translate(31,8)"/>
</svg>
